{
  "accessors": [
    {
      "bufferView": 2,
      "componentType": 5126,
      "count": 42715,
      "max": [
        0.3782390058040619,
        0.1392659991979599,
        1.25
      ],
      "min": [
        -0.003141998080536723,
        -0.26157400012016296,
        0.26565900444984436
      ],
      "type": "VEC3"
    },
    {
      "bufferView": 2,
      "byteOffset": 512580,
      "componentType": 5126,
      "count": 42715,
      "max": [
        0.9999970197677612,
        0.9995189905166626,
        0.9998322129249573
      ],
      "min": [
        -0.9999706745147705,
        -0.9998424053192139,
        -0.9996652007102966
      ],
      "type": "VEC3"
    },
    {
      "bufferView": 1,
      "componentType": 5126,
      "count": 42715,
      "max": [
        1.0,
        1.9999699592590332
      ],
      "min": [
        0.00215000007301569,
        1.0
      ],
      "type": "VEC2"
    },
    {
      "bufferView": 0,
      "componentType": 5125,
      "count": 107748,
      "type": "SCALAR"
    },
    {
      "bufferView": 2,
      "byteOffset": 1025160,
      "componentType": 5126,
      "count": 9193,
      "max": [
        0.4108630120754242,
        0.2865050137042999,
        0.26688599586486816
      ],
      "min": [
        0.03754999861121178,
        -0.2927429974079132,
        -1.034432053565979
      ],
      "type": "VEC3"
    },
    {
      "bufferView": 2,
      "byteOffset": 1135476,
      "componentType": 5126,
      "count": 9193,
      "max": [
        0.9997438788414001,
        0.9997240900993347,
        0.9999577403068542
      ],
      "min": [
        -0.9999986290931702,
        -0.9999473094940186,
        -0.9998373985290527
      ],
      "type": "VEC3"
    },
    {
      "bufferView": 1,
      "byteOffset": 341720,
      "componentType": 5126,
      "count": 9193,
      "max": [
        0.828125,
        1.9958399534225464
      ],
      "min": [
        0.0032289999071508646,
        1.1460000276565552
      ],
      "type": "VEC2"
    },
    {
      "bufferView": 0,
      "byteOffset": 430992,
      "componentType": 5125,
      "count": 38478,
      "type": "SCALAR"
    },
    {
      "bufferView": 2,
      "byteOffset": 1245792,
      "componentType": 5126,
      "count": 1612,
      "max": [
        0.22671499848365784,
        0.6314749717712402,
        0.6934130191802979
      ],
      "min": [
        -0.2527061104774475,
        -0.6310849785804749,
        0.30088600516319275
      ],
      "type": "VEC3"
    },
    {
      "bufferView": 2,
      "byteOffset": 1265136,
      "componentType": 5126,
      "count": 1612,
      "max": [
        0.9473108053207397,
        0.9992403984069824,
        0.8918681740760803
      ],
      "min": [
        -0.9850878715515137,
        -0.9999927282333374,
        -0.9775289297103882
      ],
      "type": "VEC3"
    },
    {
      "bufferView": 1,
      "byteOffset": 415264,
      "componentType": 5126,
      "count": 1612,
      "max": [
        0.9790040254592896,
        1.983049988746643
      ],
      "min": [
        0.024291999638080597,
        1.1035200357437134
      ],
      "type": "VEC2"
    },
    {
      "bufferView": 0,
      "byteOffset": 584904,
      "componentType": 5125,
      "count": 9000,
      "type": "SCALAR"
    },
    {
      "bufferView": 2,
      "byteOffset": 1284480,
      "componentType": 5126,
      "count": 5517,
      "max": [
        0.3966270089149475,
        0.10942699760198593,
        0.8554400205612183
      ],
      "min": [
        0.044619981199502945,
        -0.4496060013771057,
        0.5022370219230652
      ],
      "type": "VEC3"
    },
    {
      "bufferView": 2,
      "byteOffset": 1350684,
      "componentType": 5126,
      "count": 5517,
      "max": [
        0.998726487159729,
        0.9873142242431641,
        0.999846875667572
      ],
      "min": [
        -0.999899685382843,
        -0.9989606142044067,
        -0.9997768998146057
      ],
      "type": "VEC3"
    },
    {
      "bufferView": 1,
      "byteOffset": 428160,
      "componentType": 5126,
      "count": 5517,
      "max": [
        0.9892579913139343,
        1.9827100038528442
      ],
      "min": [
        0.016143999993801117,
        1.0126899480819702
      ],
      "type": "VEC2"
    },
    {
      "bufferView": 0,
      "byteOffset": 620904,
      "componentType": 5125,
      "count": 25338,
      "type": "SCALAR"
    },
    {
      "bufferView": 2,
      "byteOffset": 1416888,
      "componentType": 5126,
      "count": 1762,
      "max": [
        0.08616799116134644,
        0.061876989901065826,
        1.0710480213165283
      ],
      "min": [
        0.05582499876618385,
        -0.05713200941681862,
        1.0351170301437378
      ],
      "type": "VEC3"
    },
    {
      "bufferView": 2,
      "byteOffset": 1438032,
      "componentType": 5126,
      "count": 1762,
      "max": [
        0.5569000244140625,
        0.9992129802703857,
        0.9940972924232483
      ],
      "min": [
        -0.9999570250511169,
        -0.9991136193275452,
        -0.9989740252494812
      ],
      "type": "VEC3"
    },
    {
      "bufferView": 1,
      "byteOffset": 472296,
      "componentType": 5126,
      "count": 1762,
      "max": [
        1.0,
        1.2333999872207642
      ],
      "min": [
        -0.001986999996006489,
        1.0131800174713135
      ],
      "type": "VEC2"
    },
    {
      "bufferView": 0,
      "byteOffset": 722256,
      "componentType": 5125,
      "count": 10320,
      "type": "SCALAR"
    },
    {
      "bufferView": 2,
      "byteOffset": 1459176,
      "componentType": 5126,
      "count": 11730,
      "max": [
        0.3308260142803192,
        0.12822900712490082,
        1.2258930206298828
      ],
      "min": [
        0.016181999817490578,
        -0.12988600134849548,
        0.7465900182723999
      ],
      "type": "VEC3"
    },
    {
      "bufferView": 2,
      "byteOffset": 1599936,
      "componentType": 5126,
      "count": 11730,
      "max": [
        0.9999902248382568,
        0.9999496936798096,
        0.9999995231628418
      ],
      "min": [
        -0.9999846816062927,
        -0.9998136758804321,
        -0.9999783039093018
      ],
      "type": "VEC3"
    },
    {
      "bufferView": 1,
      "byteOffset": 486392,
      "componentType": 5126,
      "count": 11730,
      "max": [
        0.9960939884185791,
        1.9951399564743042
      ],
      "min": [
        0.0040779998525977135,
        1.0044000148773193
      ],
      "type": "VEC2"
    },
    {
      "bufferView": 0,
      "byteOffset": 763536,
      "componentType": 5125,
      "count": 54348,
      "type": "SCALAR"
    },
    {
      "bufferView": 2,
      "byteOffset": 1740696,
      "componentType": 5126,
      "count": 30355,
      "max": [
        0.44058701395988464,
        0.6930760741233826,
        0.9702069759368896
      ],
      "min": [
        -0.4405871033668518,
        -0.6930760145187378,
        -1.25
      ],
      "type": "VEC3"
    },
    {
      "bufferView": 2,
      "byteOffset": 2104956,
      "componentType": 5126,
      "count": 30355,
      "max": [
        0.9999189972877502,
        0.9999107122421265,
        0.9998518824577332
      ],
      "min": [
        -0.9999911189079285,
        -0.9999520778656006,
        -0.9999657273292542
      ],
      "type": "VEC3"
    },
    {
      "bufferView": 1,
      "byteOffset": 580232,
      "componentType": 5126,
      "count": 30355,
      "max": [
        0.9985349774360657,
        1.9954299926757813
      ],
      "min": [
        0.001227000029757619,
        1.0014599561691284
      ],
      "type": "VEC2"
    },
    {
      "bufferView": 0,
      "byteOffset": 980928,
      "componentType": 5125,
      "count": 103227,
      "type": "SCALAR"
    }
  ],
  "asset": {
    "extras": {
      "author": "bhavmanthak (https://sketchfab.com/bhavmanthak)",
      "license": "CC-BY-4.0 (http://creativecommons.org/licenses/by/4.0/)",
      "source": "https://sketchfab.com/3d-models/nw-project-f80582fba119465180e4bc102b2a9a7c",
      "title": "Nw Project"
    },
    "generator": "Sketchfab-17.8.0",
    "version": "2.0"
  },
  "bufferViews": [
    {
      "buffer": 0,
      "byteLength": 1393836,
      "name": "floatBufferViews",
      "target": 34963
    },
    {
      "buffer": 0,
      "byteLength": 823072,
      "byteOffset": 1393836,
      "byteStride": 8,
      "name": "floatBufferViews",
      "target": 34962
    },
    {
      "buffer": 0,
      "byteLength": 2469216,
      "byteOffset": 2216908,
      "byteStride": 12,
      "name": "floatBufferViews",
      "target": 34962
    }
  ],
  "buffers": [
    {
      "byteLength": 4686124,
      "uri": "scene.bin"
    }
  ],
  "images": [
    {
      "uri": "textures/Material_1_baseColor.png"
    },
    {
      "uri": "textures/Material_3_baseColor.png"
    },
    {
      "uri": "textures/Material_5_baseColor.png"
    }
  ],
  "materials": [
    {
      "doubleSided": true,
      "name": "Material",
      "pbrMetallicRoughness": {
        "baseColorFactor": [
          0.004329392431608561,
          0.00040020669878884874,
          0.00040020669878884874,
          1.0
        ],
        "metallicFactor": 0.0,
        "roughnessFactor": 0.6
      }
    },
    {
      "doubleSided": true,
      "name": "Material_1",
      "pbrMetallicRoughness": {
        "baseColorTexture": {
          "index": 0
        },
        "metallicFactor": 0.0,
        "roughnessFactor": 0.6
      }
    },
    {
      "doubleSided": true,
      "name": "Material_2",
      "pbrMetallicRoughness": {
        "baseColorFactor": [
          0.01265853726691823,
          0.000381236470958203,
          0.000381236470958203,
          1.0
        ],
        "metallicFactor": 0.0,
        "roughnessFactor": 0.6
      }
    },
    {
      "doubleSided": true,
      "name": "Material_3",
      "pbrMetallicRoughness": {
        "baseColorTexture": {
          "index": 1
        },
        "metallicFactor": 0.0,
        "roughnessFactor": 0.6
      }
    },
    {
      "doubleSided": true,
      "name": "Material_4",
      "pbrMetallicRoughness": {
        "baseColorTexture": {
          "index": 1
        },
        "metallicFactor": 0.0,
        "roughnessFactor": 0.6
      }
    },
    {
      "doubleSided": true,
      "name": "Material_5",
      "pbrMetallicRoughness": {
        "baseColorTexture": {
          "index": 2
        },
        "metallicFactor": 0.0,
        "roughnessFactor": 0.6
      }
    }
  ],
  "meshes": [
    {
      "name": "Object_0",
      "primitives": [
        {
          "attributes": {
            "NORMAL": 1,
            "POSITION": 0,
            "TEXCOORD_0": 2
          },
          "indices": 3,
          "material": 0,
          "mode": 4
        }
      ]
    },
    {
      "name": "Object_1",
      "primitives": [
        {
          "attributes": {
            "NORMAL": 5,
            "POSITION": 4,
            "TEXCOORD_0": 6
          },
          "indices": 7,
          "material": 0,
          "mode": 4
        }
      ]
    },
    {
      "name": "Object_2",
      "primitives": [
        {
          "attributes": {
            "NORMAL": 9,
            "POSITION": 8,
            "TEXCOORD_0": 10
          },
          "indices": 11,
          "material": 1,
          "mode": 4
        }
      ]
    },
    {
      "name": "Object_3",
      "primitives": [
        {
          "attributes": {
            "NORMAL": 13,
            "POSITION": 12,
            "TEXCOORD_0": 14
          },
          "indices": 15,
          "material": 2,
          "mode": 4
        }
      ]
    },
    {
      "name": "Object_4",
      "primitives": [
        {
          "attributes": {
            "NORMAL": 17,
            "POSITION": 16,
            "TEXCOORD_0": 18
          },
          "indices": 19,
          "material": 3,
          "mode": 4
        }
      ]
    },
    {
      "name": "Object_5",
      "primitives": [
        {
          "attributes": {
            "NORMAL": 21,
            "POSITION": 20,
            "TEXCOORD_0": 22
          },
          "indices": 23,
          "material": 4,
          "mode": 4
        }
      ]
    },
    {
      "name": "Object_6",
      "primitives": [
        {
          "attributes": {
            "NORMAL": 25,
            "POSITION": 24,
            "TEXCOORD_0": 26
          },
          "indices": 27,
          "material": 5,
          "mode": 4
        }
      ]
    }
  ],
  "nodes": [
    {
      "children": [
        1
      ],
      "matrix": [
        1.0,
        0.0,
        0.0,
        0.0,
        0.0,
        2.220446049250313e-16,
        -1.0,
        0.0,
        0.0,
        1.0,
        2.220446049250313e-16,
        0.0,
        0.0,
        0.0,
        0.0,
        1.0
      ],
      "name": "Sketchfab_model"
    },
    {
      "children": [
        2,
        3,
        4,
        5,
        6,
        7,
        8
      ],
      "name": "Nw Project.obj.cleaner.materialmerger.gles"
    },
    {
      "mesh": 0,
      "name": "Object_2"
    },
    {
      "mesh": 1,
      "name": "Object_3"
    },
    {
      "mesh": 2,
      "name": "Object_4"
    },
    {
      "mesh": 3,
      "name": "Object_5"
    },
    {
      "mesh": 4,
      "name": "Object_6"
    },
    {
      "mesh": 5,
      "name": "Object_7"
    },
    {
      "mesh": 6,
      "name": "Object_8"
    }
  ],
  "samplers": [
    {
      "magFilter": 9729,
      "minFilter": 9987,
      "wrapS": 10497,
      "wrapT": 10497
    }
  ],
  "scene": 0,
  "scenes": [
    {
      "name": "Sketchfab_Scene",
      "nodes": [
        0
      ]
    }
  ],
  "textures": [
    {
      "sampler": 0,
      "source": 0
    },
    {
      "sampler": 0,
      "source": 1
    },
    {
      "sampler": 0,
      "source": 2
    }
  ]
}
